# xmcd
#
# Track frame offsets:
#	150
#	12007
#	24675
#	37975
#	50670
#	64252
#	77980
#	92612
#	102520
#	115195
#	128622
#	139855
#	154395
#	167142
#	179080
#	191552
#	205860
#	219640
#	233812
#	247620
#	261312
#	274975
#	288872
#	301840
#	316045
#	331307
#
# Disc length: 4600 seconds
# Revision: 1
# Processed by: cddbd v1.5.2PL0 Copyright (c) Steve Scherf et al.
# Submitted via: dBpowerAMP V12.0
#
DISCID=7411f61a
DTITLE=Various Artist - Complete Recorded Works In Chronological Order (1927-1930)
DYEAR=1998
DGENRE=Blues
TTITLE0=Ed Bell - Mamlish Blues
TTITLE1=Ed Bell - Hambone Blues
TTITLE2=Ed Bell - Mean Conductor Blues
TTITLE3=Ed Bell - Frisco Whistle Blues
TTITLE4=Ed Bell - Shouting Baby Blues
TTITLE5=Ed Bell - She's a Fool
TTITLE6=Ed Bell - Tooten' Out Blues
TTITLE7=Ed Bell - Grab It and Run
TTITLE8=Ed Bell - Leaving Train Blues
TTITLE9=Ed Bell - House Top Blues
TTITLE10=Ed Bell - Rocky Road Moan
TTITLE11=Ed Bell - Rosca Mama Blues
TTITLE12=Ed Bell - My Crime Blues
TTITLE13=Ed Bell - Snigglin' Blues
TTITLE14=Ed Bell - Big Rock Jail
TTITLE15=Ed Bell - From Now On
TTITLE16=Ed Bell and Pillie Bolling - I Don't Like That
TTITLE17=Ed Bell and Pillie Bolling - She's Got a Nice Line
TTITLE18=Ed Bell - Squabblin' Blues
TTITLE19=Ed Bell - Barefoot Bill's Hard Rock Blues
TTITLE20=Ed Bell - One More Time
TTITLE21=Ed Bell - Bad Boy
TTITLE22=Ed Bell - Carry It Right Back Home
TTITLE23=Ed Bell - She's a Fool Gal
TTITLE24=Pillie Bolling - Brown Skin Woman
TTITLE25=Pillie Bolling - Shake Me Like a Dog
EXTD=
EXTT0=
EXTT1=
EXTT2=
EXTT3=
EXTT4=
EXTT5=
EXTT6=
EXTT7=
EXTT8=
EXTT9=
EXTT10=
EXTT11=
EXTT12=
EXTT13=
EXTT14=
EXTT15=
EXTT16=
EXTT17=
EXTT18=
EXTT19=
EXTT20=
EXTT21=
EXTT22=
EXTT23=
EXTT24=
EXTT25=
PLAYORDER=
